<svg width="295" height="29" viewBox="0 0 295 29" fill="none" xmlns="http://www.w3.org/2000/svg">
<path d="M13.6124 27.656C20.8295 27.656 26.6784 21.8071 26.6784 14.59C26.6784 7.37287 20.8295 1.50684 13.6124 1.50684C6.39526 1.50684 0.546326 7.35577 0.546326 14.5729C0.546326 21.79 6.39526 27.6389 13.6124 27.6389V27.656Z" fill="#337FBD"/>
<path d="M67.1078 27.6389C74.3249 27.6389 80.1739 21.79 80.1739 14.5729C80.1739 7.35577 74.3249 1.50684 67.1078 1.50684C59.8907 1.50684 54.0418 7.35577 54.0418 14.5729C54.0418 21.79 59.8907 27.6389 67.1078 27.6389Z" stroke="#337FBD" stroke-width="1.71021"/>
<path d="M120.603 27.6389C127.82 27.6389 133.669 21.79 133.669 14.5729C133.669 7.35577 127.82 1.50684 120.603 1.50684C113.386 1.50684 107.537 7.35577 107.537 14.5729C107.537 21.79 113.386 27.6389 120.603 27.6389Z" fill="#FFE92A"/>
<path d="M174.099 27.6389C181.316 27.6389 187.165 21.79 187.165 14.5729C187.165 7.35577 181.316 1.50684 174.099 1.50684C166.882 1.50684 161.033 7.35577 161.033 14.5729C161.033 21.79 166.882 27.6389 174.099 27.6389Z" fill="#EDEFEC"/>
<path d="M227.594 27.6389C234.811 27.6389 240.66 21.79 240.66 14.5729C240.66 7.35577 234.811 1.50684 227.594 1.50684C220.377 1.50684 214.528 7.35577 214.528 14.5729C214.528 21.79 220.377 27.6389 227.594 27.6389Z" fill="#D9DDDB"/>
<path d="M281.09 27.6389C288.307 27.6389 294.156 21.79 294.156 14.5729C294.156 7.35577 288.307 1.50684 281.09 1.50684C273.873 1.50684 268.024 7.35577 268.024 14.5729C268.024 21.79 273.873 27.6389 281.09 27.6389Z" fill="#303032"/>
</svg>
