<svg width="19" height="19" viewBox="0 0 19 19" fill="none" xmlns="http://www.w3.org/2000/svg">
<g clip-path="url(#clip0_233_1149)">
<path d="M15.4031 13.6522C15.3855 13.4997 15.4406 13.3484 15.5472 13.238C16.6636 12.0824 17.3018 10.6646 17.3018 9.11247C17.3018 5.44446 13.6708 2.44336 9.15065 2.44336C4.63047 2.44336 0.999512 5.44446 0.999512 9.11247C0.999512 12.7805 4.63047 15.7816 9.15065 15.7816C9.87857 15.7816 10.6065 15.6843 11.3041 15.5504C11.3979 15.5324 11.4951 15.5411 11.5839 15.5764L15.0514 16.9576C15.3987 17.0959 15.7678 16.8133 15.725 16.442L15.4031 13.6522Z" stroke="black" stroke-width="0.988017" stroke-miterlimit="10" stroke-linecap="square"/>
</g>
<defs>
<clipPath id="clip0_233_1149">
<rect width="17.7843" height="17.7843" fill="white" transform="translate(0.258621 0.962891)"/>
</clipPath>
</defs>
</svg>
