<svg width="15" height="15" viewBox="0 0 15 15" fill="none" xmlns="http://www.w3.org/2000/svg">
<path d="M14.9753 7.47101C14.9753 10.7033 12.8375 13.5252 9.74206 14.4316C6.64657 15.338 3.32872 14.0895 1.58431 11.3703C-0.160112 8.65105 0.0964119 5.11091 2.21708 2.68241C4.33774 0.253902 7.79244 -0.498595 10.734 0.835371C13.3335 2.03252 14.9924 4.61495 14.9924 7.47101H14.9753Z" fill="#85C441"/>
<path d="M5.73979 11.5927L5.41484 11.4559L2.67844 8.48016C2.50742 8.29203 2.50742 7.96709 2.67844 7.77896C2.84946 7.59084 3.1402 7.59084 3.32833 7.77896L5.73979 10.3956L12.0846 3.46922C12.2556 3.28109 12.5464 3.28109 12.7345 3.46922C12.9055 3.65734 12.9055 3.98229 12.7345 4.17041L6.06463 11.4388L5.73979 11.5756V11.5927Z" fill="white"/>
</svg>
