<svg width="18" height="17" viewBox="0 0 18 17" fill="none" xmlns="http://www.w3.org/2000/svg">
<path d="M16.1147 2.78097C15.7214 2.35937 15.2456 2.02318 14.7169 1.79331C14.1881 1.56345 13.6177 1.44482 13.0412 1.44482C12.4646 1.44482 11.8942 1.56345 11.3655 1.79331C10.8367 2.02318 10.3609 2.35937 9.96769 2.78097C9.67547 3.09819 9.42997 3.45543 9.23858 3.84192C9.04711 3.45512 8.80107 3.09783 8.508 2.78097C8.11453 2.35976 7.63866 2.02392 7.10994 1.7943C6.58123 1.56469 6.01095 1.4462 5.43451 1.4462C4.85808 1.4462 4.2878 1.56469 3.75908 1.7943C3.23036 2.02392 2.75449 2.35976 2.36102 2.78097C1.54332 3.65525 1.08842 4.80754 1.08842 6.00456C1.08842 7.20158 1.54332 8.35388 2.36102 9.22815L9.23858 16.2651L16.1147 9.22963C16.9344 8.35611 17.3907 7.20319 17.3907 6.0053C17.3907 4.80742 16.9344 3.6545 16.1147 2.78097Z" stroke="black" stroke-width="0.988017" stroke-linecap="round" stroke-linejoin="round"/>
</svg>
