<svg width="52" height="8" viewBox="0 0 52 8" fill="none" xmlns="http://www.w3.org/2000/svg">
<g id="Group 3">
<path id="Vector" d="M7.44563 4.25826C7.44563 6.12239 5.92352 7.64445 4.05939 7.64445C2.19525 7.64445 0.673172 6.12239 0.673172 4.25826C0.673172 2.39413 2.19525 0.87207 4.05939 0.87207C5.92352 0.87207 7.44563 2.39413 7.44563 4.25826Z" fill="#FFE92A"/>
<path id="Vector_2" d="M22.1361 4.25826C22.1361 6.12239 20.614 7.64445 18.7499 7.64445C16.8857 7.64445 15.3637 6.12239 15.3637 4.25826C15.3637 2.39413 16.8857 0.87207 18.7499 0.87207C20.614 0.87207 22.1361 2.39413 22.1361 4.25826Z" fill="#CCCCCC"/>
<path id="Vector_3" d="M36.8099 4.25826C36.8099 6.12239 35.2878 7.64445 33.4236 7.64445C31.5595 7.64445 30.0374 6.12239 30.0374 4.25826C30.0374 2.39413 31.5595 0.87207 33.4236 0.87207C35.2878 0.87207 36.8099 2.39413 36.8099 4.25826Z" fill="#EDEFEC"/>
<path id="Vector_4" d="M51.4837 4.25826C51.4837 6.12239 49.9615 7.64445 48.0974 7.64445C46.2333 7.64445 44.7112 6.12239 44.7112 4.25826C44.7112 2.39413 46.2162 0.87207 48.0974 0.87207C49.9786 0.87207 51.4837 2.39413 51.4837 4.25826Z" fill="#D9DDDB"/>
</g>
</svg>
