<svg width="309" height="199" viewBox="0 0 309 199" fill="none" xmlns="http://www.w3.org/2000/svg">
<path d="M221.433 186.929L272.302 186.945L216.011 16.6038C211.802 4.29252 198.056 -2.14689 185.311 2.21173C173.102 6.38907 166.474 19.3309 170.509 31.1142L221.441 186.921L221.433 186.929Z" fill="#99D3F9"/>
<path d="M114.154 196.214L166.048 196.797L106.73 17.5186C102.3 4.56092 88.1997 -2.35139 75.2499 2.07816C62.844 6.31856 56.2233 19.82 60.4637 32.2259L114.146 196.214H114.154Z" fill="#99D3F9"/>
<path d="M308.235 0.738281H262.639V32.226H308.235V0.738281Z" fill="#FAEE5D"/>
<path d="M52.2903 196.214L0.396729 196.797L59.7071 17.5186C64.1366 4.56092 78.2371 -2.35139 91.1948 2.07816C103.601 6.31856 110.221 19.82 105.981 32.2259L52.2903 196.214Z" fill="#3D77B9"/>
<path d="M166.435 196.797H110.852L170.17 17.5185C174.6 4.56087 188.7 -2.35144 201.658 2.08599C214.064 6.32639 220.684 19.8279 216.444 32.2338L165.398 196.014L166.435 196.797Z" fill="#3D77B9"/>
<path d="M190.474 115.372C190.474 115.372 196.763 173.429 240.026 169.362C240.026 169.362 250.217 168.605 257.216 152.353C259.849 146.237 261.11 139.616 261.212 132.956L262.631 41.4326H307.518L305.437 146.181C305.209 157.61 301.654 168.826 294.749 177.945C288.247 186.528 277.859 194.851 261.417 197.878C253.378 199.36 245.118 199.131 237.102 197.539C215.451 193.236 173.339 176.912 190.474 115.372Z" fill="#3D77B9"/>
</svg>
