<svg width="739" height="666" viewBox="0 0 739 666" fill="none" xmlns="http://www.w3.org/2000/svg">
<path d="M589.897 0.645508H586.494V1.48352H589.897V0.645508ZM583.09 0.645508H579.687V1.48352H583.09V0.645508ZM576.284 0.645508H572.88V1.48352H576.284V0.645508ZM569.477 0.645508H566.074V1.48352H569.477V0.645508ZM562.67 0.645508H559.267V1.48352H562.67V0.645508ZM555.864 0.645508H552.46V1.48352H555.864V0.645508ZM549.057 0.645508H545.654V1.48352H549.057V0.645508ZM542.25 0.645508H538.847V1.48352H542.25V0.645508ZM535.444 0.645508H532.041V1.48352H535.444V0.645508ZM528.637 0.645508H525.234V1.48352H528.637V0.645508ZM521.83 0.645508H518.427V1.48352H521.83V0.645508ZM515.024 0.645508H511.621V1.48352H515.024V0.645508ZM508.217 0.645508H504.814V1.48352H508.217V0.645508ZM501.411 0.645508H498.007V1.48352H501.411V0.645508ZM494.604 0.645508H491.201V1.48352H494.604V0.645508ZM487.797 0.645508H484.394V1.48352H487.797V0.645508ZM480.991 0.645508H477.587V1.48352H480.991V0.645508ZM474.184 0.645508H470.781V1.48352H474.184V0.645508ZM467.377 0.645508H463.974V1.48352H467.377V0.645508ZM460.571 0.645508H457.167V1.48352H460.571V0.645508ZM453.764 0.645508H450.361V1.48352H453.764V0.645508ZM446.957 0.645508H443.554V1.48352H446.957V0.645508ZM440.151 0.645508H436.747V1.48352H440.151V0.645508ZM433.344 0.645508H429.941V1.48352H433.344V0.645508ZM426.537 0.645508H423.134V1.48352H426.537V0.645508ZM419.731 0.645508H416.327V1.48352H419.731V0.645508ZM412.924 0.645508H409.521V1.48352H412.924V0.645508ZM406.117 0.645508H402.714V1.48352H406.117V0.645508ZM399.311 0.645508H395.907V1.48352H399.311V0.645508ZM392.504 0.645508H389.101V1.48352H392.504V0.645508ZM385.698 0.645508H382.294V1.48352H385.698V0.645508ZM378.891 0.645508H375.488V1.48352H378.891V0.645508ZM372.084 0.645508H368.681V1.48352H372.084V0.645508ZM365.278 0.645508H361.874V1.48352H365.278V0.645508ZM358.471 0.645508H355.068V1.48352H358.471V0.645508ZM351.664 0.645508H348.261V1.48352H351.664V0.645508ZM344.858 0.645508H341.454V1.48352H344.858V0.645508ZM338.051 0.645508H334.648V1.48352H338.051V0.645508ZM331.244 0.645508H327.841V1.48352H331.244V0.645508Z" fill="black"/>
<path d="M322.42 6.20361V9.62404H323.258V6.20361H322.42ZM322.42 13.0616V16.482H323.258V13.0616H322.42ZM322.42 19.9024V23.3229H323.258V19.9024H322.42ZM322.42 26.7433V30.1637H323.258V26.7433H322.42ZM322.42 33.5842V37.0046H323.258V33.5842H322.42ZM322.42 40.425V43.8454H323.258V40.425H322.42ZM322.42 47.2659V50.6863H323.258V47.2659H322.42ZM322.42 54.1067V57.5271H323.258V54.1067H322.42ZM322.42 60.9476V64.368H323.258V60.9476H322.42ZM322.42 67.8055V71.2259H323.258V67.8055H322.42ZM322.42 74.6464V78.0668H323.258V74.6464H322.42ZM322.42 81.4872V84.9077H323.258V81.4872H322.42ZM322.42 88.3281V91.7485H323.258V88.3281H322.42ZM322.42 95.186V98.6065H323.258V95.186H322.42ZM322.42 102.027V105.447H323.258V102.027H322.42ZM322.42 108.868V112.288H323.258V108.868H322.42ZM322.42 115.709V119.129H323.258V115.709H322.42ZM322.42 122.567V125.987H323.258V122.567H322.42ZM322.42 129.407V132.828H323.258V129.407H322.42ZM322.42 136.248V139.669H323.258V136.248H322.42ZM322.42 143.106V146.527H323.258V143.106H322.42ZM322.42 149.947V153.368H323.258V149.947H322.42ZM322.42 156.788V160.208H323.258V156.788H322.42ZM322.42 163.629V167.049H323.258V163.629H322.42ZM322.42 170.487V173.907H323.258V170.487H322.42ZM322.42 177.328V180.748H323.258V177.328H322.42ZM322.42 184.168V187.589H323.258V184.168H322.42ZM322.42 191.009V194.43H323.258V191.009H322.42ZM322.42 197.85V201.271H323.258V197.85H322.42ZM322.42 204.691V208.111H323.258V204.691H322.42ZM322.42 211.532V214.952H323.258V211.532H322.42ZM322.42 218.373V221.793H323.258V218.373H322.42ZM322.42 225.231V228.651H323.258V225.231H322.42ZM322.42 232.072V235.492H323.258V232.072H322.42ZM322.42 238.912V242.333H323.258V238.912H322.42ZM322.42 245.753V249.174H323.258V245.753H322.42ZM322.42 252.611V256.032H323.258V252.611H322.42ZM322.42 259.452V262.872H323.258V259.452H322.42ZM322.42 266.293V269.713H323.258V266.293H322.42ZM322.42 273.151V276.571H323.258V273.151H322.42ZM322.42 279.992V283.412H323.258V279.992H322.42ZM322.42 286.833V290.253H323.258V286.833H322.42ZM322.42 293.673V297.094H323.258V293.673H322.42ZM322.42 300.531V303.952H323.258V300.531H322.42ZM322.42 307.372V310.793H323.258V307.372H322.42ZM322.42 314.213V317.634H323.258V314.213H322.42ZM322.42 321.054V324.474H323.258V321.054H322.42ZM322.42 327.912V331.332H323.258V327.912H322.42ZM322.42 334.753V338.173H323.258V334.753H322.42ZM322.42 341.594V345.014H323.258V341.594H322.42ZM322.42 348.452V351.872H323.258V348.452H322.42ZM322.42 355.292V358.713H323.258V355.292H322.42ZM322.42 362.133V365.554H323.258V362.133H322.42ZM322.42 368.974V372.395H323.258V368.974H322.42ZM322.42 375.832V379.253H323.258V375.832H322.42ZM322.42 382.673V386.093H323.258V382.673H322.42ZM322.42 389.514V392.934H323.258V389.514H322.42ZM322.42 396.355V399.775H323.258V396.355H322.42ZM322.42 403.213V406.633H323.258V403.213H322.42ZM322.42 410.053V413.474H323.258V410.053H322.42ZM322.42 416.894V420.315H323.258V416.894H322.42ZM322.42 423.735V427.156H323.258V423.735H322.42ZM322.42 430.576V433.996H323.258V430.576H322.42ZM322.42 437.417V440.837H323.258V437.417H322.42ZM322.42 444.258V447.678H323.258V444.258H322.42ZM322.42 451.099V454.519H323.258V451.099H322.42ZM322.42 457.939V461.36H323.258V457.939H322.42ZM322.42 464.78V468.201H323.258V464.78H322.42ZM322.42 471.621V475.042H323.258V471.621H322.42ZM322.42 478.462V481.882H323.258V478.462H322.42ZM322.42 485.303V488.723H323.258V485.303H322.42ZM322.42 492.144V495.564H323.258V492.144H322.42ZM322.42 499.002V502.422H323.258V499.002H322.42ZM322.42 505.843V509.263H323.258V505.843H322.42ZM322.42 512.683V516.104H323.258V512.683H322.42ZM322.42 519.524V522.945H323.258V519.524H322.42ZM322.42 526.382V529.803H323.258V526.382H322.42ZM322.42 533.223V536.643H323.258V533.223H322.42ZM322.42 540.064V543.484H323.258V540.064H322.42ZM322.42 546.905V550.325H323.258V546.905H322.42ZM322.42 553.763V557.183H323.258V553.763H322.42ZM322.42 560.604V564.024H323.258V560.604H322.42ZM322.42 567.444V570.865H323.258V567.444H322.42ZM322.42 574.285V577.706H323.258V574.285H322.42ZM322.42 581.143V584.564H323.258V581.143H322.42ZM322.42 587.984V591.405H323.258V587.984H322.42ZM322.42 594.825V598.245H323.258V594.825H322.42ZM322.42 601.683V605.103H323.258V601.683H322.42ZM322.42 608.524V611.944H323.258V608.524H322.42ZM322.42 615.365V618.785H323.258V615.365H322.42ZM322.42 622.206V625.626H323.258V622.206H322.42ZM322.42 629.063V632.484H323.258V629.063H322.42ZM322.42 635.904V639.325H323.258V635.904H322.42ZM322.42 642.745V646.166H323.258V642.745H322.42ZM322.42 649.586V653.006H323.258V649.586H322.42ZM322.42 656.444V659.864H323.258V656.444H322.42Z" fill="black"/>
<path d="M327.944 665.765H331.347V664.927H327.944V665.765ZM334.75 665.765H338.154V664.927H334.75V665.765ZM341.557 665.765H344.96V664.927H341.557V665.765ZM348.364 665.765H351.767V664.927H348.364V665.765ZM355.17 665.765H358.574V664.927H355.17V665.765ZM361.977 665.765H365.38V664.927H361.977V665.765ZM368.784 665.765H372.187V664.927H368.784V665.765ZM375.59 665.765H378.994V664.927H375.59V665.765ZM382.397 665.765H385.8V664.927H382.397V665.765ZM389.204 665.765H392.607V664.927H389.204V665.765ZM396.01 665.765H399.414V664.927H396.01V665.765ZM402.817 665.765H406.22V664.927H402.817V665.765ZM409.624 665.765H413.027V664.927H409.624V665.765ZM416.43 665.765H419.834V664.927H416.43V665.765ZM423.237 665.765H426.64V664.927H423.237V665.765ZM430.044 665.765H433.447V664.927H430.044V665.765ZM436.85 665.765H440.254V664.927H436.85V665.765ZM443.657 665.765H447.06V664.927H443.657V665.765ZM450.463 665.765H453.867V664.927H450.463V665.765ZM457.27 665.765H460.673V664.927H457.27V665.765ZM464.077 665.765H467.48V664.927H464.077V665.765ZM470.883 665.765H474.287V664.927H470.883V665.765ZM477.69 665.765H481.093V664.927H477.69V665.765ZM484.497 665.765H487.9V664.927H484.497V665.765ZM491.303 665.765H494.707V664.927H491.303V665.765ZM498.11 665.765H501.513V664.927H498.11V665.765ZM504.917 665.765H508.32V664.927H504.917V665.765ZM511.723 665.765H515.127V664.927H511.723V665.765ZM518.53 665.765H521.933V664.927H518.53V665.765ZM525.337 665.765H528.74V664.927H525.337V665.765ZM532.143 665.765H535.547V664.927H532.143V665.765ZM538.95 665.765H542.353V664.927H538.95V665.765ZM545.757 665.765H549.16V664.927H545.757V665.765ZM552.563 665.765H555.967V664.927H552.563V665.765ZM559.37 665.765H562.773V664.927H559.37V665.765ZM566.177 665.765H569.58V664.927H566.177V665.765ZM572.983 665.765H576.387V664.927H572.983V665.765ZM579.79 665.765H583.193V664.927H579.79V665.765ZM586.596 665.765H590V664.927H586.596V665.765Z" fill="black"/>
<path d="M595.421 660.207V656.786H594.583V660.207H595.421ZM595.421 653.366V649.945H594.583V653.366H595.421ZM595.421 646.525V643.105H594.583V646.525H595.421ZM595.421 639.684V636.264H594.583V639.684H595.421ZM595.421 632.826V629.406H594.583V632.826H595.421ZM595.421 625.985V622.565H594.583V625.985H595.421ZM595.421 619.144V615.724H594.583V619.144H595.421ZM595.421 612.287V608.866H594.583V612.287H595.421ZM595.421 605.446V602.025H594.583V605.446H595.421ZM595.421 598.605V595.184H594.583V598.605H595.421ZM595.421 591.747V588.326H594.583V591.747H595.421ZM595.421 584.906V581.486H594.583V584.906H595.421ZM595.421 578.065V574.645H594.583V578.065H595.421ZM595.421 571.224V567.804H594.583V571.224H595.421ZM595.421 564.383V560.963H594.583V564.383H595.421ZM595.421 557.543V554.122H594.583V557.543H595.421ZM595.421 550.702V547.281H594.583V550.702H595.421ZM595.421 543.861V540.44H594.583V543.861H595.421ZM595.421 537.003V533.582H594.583V537.003H595.421ZM595.421 530.162V526.742H594.583V530.162H595.421ZM595.421 523.321V519.901H594.583V523.321H595.421ZM595.421 516.48V513.06H594.583V516.48H595.421ZM595.421 509.622V506.202H594.583V509.622H595.421ZM595.421 502.782V499.361H594.583V502.782H595.421ZM595.421 495.941V492.52H594.583V495.941H595.421ZM595.421 489.1V485.679H594.583V489.1H595.421ZM595.421 482.259V478.839H594.583V482.259H595.421ZM595.421 475.418V471.998H594.583V475.418H595.421ZM595.421 468.577V465.157H594.583V468.577H595.421ZM595.421 461.736V458.316H594.583V461.736H595.421ZM595.421 454.896V451.475H594.583V454.896H595.421ZM595.421 448.055V444.634H594.583V448.055H595.421ZM595.421 441.214V437.793H594.583V441.214H595.421ZM595.421 434.373V430.953H594.583V434.373H595.421ZM595.421 427.532V424.112H594.583V427.532H595.421ZM595.421 420.691V417.271H594.583V420.691H595.421ZM595.421 413.85V410.43H594.583V413.85H595.421ZM595.421 407.01V403.589H594.583V407.01H595.421ZM595.421 400.152V396.731H594.583V400.152H595.421ZM595.421 393.311V389.89H594.583V393.311H595.421ZM595.421 386.47V383.049H594.583V386.47H595.421ZM595.421 379.612V376.191H594.583V379.612H595.421ZM595.421 372.771V369.351H594.583V372.771H595.421ZM595.421 365.93V362.51H594.583V365.93H595.421ZM595.421 359.089V355.669H594.583V359.089H595.421ZM595.421 352.231V348.811H594.583V352.231H595.421ZM595.421 345.391V341.97H594.583V345.391H595.421ZM595.421 338.55V335.129H594.583V338.55H595.421ZM595.421 331.692V328.271H594.583V331.692H595.421ZM595.421 324.851V321.43H594.583V324.851H595.421ZM595.421 318.01V314.59H594.583V318.01H595.421ZM595.421 311.152V307.732H594.583V311.152H595.421ZM595.421 304.311V300.891H594.583V304.311H595.421ZM595.421 297.453V294.033H594.583V297.453H595.421ZM595.421 290.612V287.192H594.583V290.612H595.421ZM595.421 283.772V280.351H594.583V283.772H595.421ZM595.421 276.914V273.493H594.583V276.914H595.421ZM595.421 270.073V266.652H594.583V270.073H595.421ZM595.421 263.232V259.811H594.583V263.232H595.421ZM595.421 256.391V252.971H594.583V256.391H595.421ZM595.421 249.533V246.113H594.583V249.533H595.421ZM595.421 242.692V239.272H594.583V242.692H595.421ZM595.421 235.851V232.431H594.583V235.851H595.421ZM595.421 228.993V225.573H594.583V228.993H595.421ZM595.421 222.153V218.732H594.583V222.153H595.421ZM595.421 215.312V211.891H594.583V215.312H595.421ZM595.421 208.454V205.033H594.583V208.454H595.421ZM595.421 201.613V198.192H594.583V201.613H595.421ZM595.421 194.772V191.352H594.583V194.772H595.421ZM595.421 187.931V184.511H594.583V187.931H595.421ZM595.421 181.09V177.67H594.583V181.09H595.421ZM595.421 174.232V170.812H594.583V174.232H595.421ZM595.421 167.392V163.971H594.583V167.392H595.421ZM595.421 160.551V157.13H594.583V160.551H595.421ZM595.421 153.71V150.289H594.583V153.71H595.421ZM595.421 146.852V143.431H594.583V146.852H595.421ZM595.421 140.011V136.591H594.583V140.011H595.421ZM595.421 133.17V129.75H594.583V133.17H595.421ZM595.421 126.312V122.892H594.583V126.312H595.421ZM595.421 119.471V116.051H594.583V119.471H595.421ZM595.421 112.63V109.21H594.583V112.63H595.421ZM595.421 105.773V102.352H594.583V105.773H595.421ZM595.421 98.9317V95.5112H594.583V98.9317H595.421ZM595.421 92.0908V88.6704H594.583V92.0908H595.421ZM595.421 85.2499V81.8295H594.583V85.2499H595.421ZM595.421 78.392V74.9716H594.583V78.392H595.421ZM595.421 71.5511V68.1307H594.583V71.5511H595.421ZM595.421 64.7103V61.2899H594.583V64.7103H595.421ZM595.421 57.8694V54.449H594.583V57.8694H595.421ZM595.421 51.0115V47.591H594.583V51.0115H595.421ZM595.421 44.1706V40.7502H594.583V44.1706H595.421ZM595.421 37.3298V33.9093H594.583V37.3298H595.421ZM595.421 30.4889V27.0685H594.583V30.4889H595.421ZM595.421 23.6309V20.2105H594.583V23.6309H595.421ZM595.421 16.7901V13.3697H594.583V16.7901H595.421ZM595.421 9.94924V6.52881H594.583V9.94924H595.421Z" fill="black"/>
<path d="M324.54 0.645508H322.42V2.78328H323.258V1.50061H324.54V0.662627V0.645508ZM322.42 663.627V665.765H324.54V664.927H323.258V663.644H322.42V663.627ZM593.301 665.765H595.421V663.627H594.583V664.91H593.301V665.748V665.765ZM595.421 2.78328V0.645508H593.301V1.48352H594.583V2.76618H595.421V2.78328Z" fill="black"/>
<path d="M144.045 397.569H122.068V268.14H144.045V269.696L149.073 267.764L144.045 265.814V267.353H121.282V398.356H144.045V399.826L149.073 397.877L144.045 395.927V397.569Z" fill="black"/>
<path d="M184.833 268.072V268.174H737.146V397.398H184.936V395.944V395.79L179.514 397.877L184.936 399.98V398.39H738.138V267.182H184.936V265.814V265.66L179.514 267.764L184.936 269.85V268.072H184.833V268.174V268.072H184.73V269.559L180.096 267.764L184.73 265.968V267.285V267.387H737.933V398.185H184.73V399.673L180.096 397.877L184.73 396.081V397.501V397.603H737.352V267.969H184.73V268.072H184.833Z" fill="black"/>
<path d="M727.552 299.061H729.057L727.176 295.572L725.295 299.061H726.8V366.495H725.295L727.176 369.984L729.057 366.495H727.552V299.061Z" fill="black"/>
<path d="M164.806 337.421V335.061L159.316 338.003L164.806 340.961V338.601H183.687V340.961L189.177 338.003L183.687 335.061V337.421H164.806Z" fill="black"/>
<path d="M609.428 281.565H607.529L609.907 286.012L612.301 281.565H610.403V274.382H612.301L609.907 269.953L607.529 274.382H609.428V281.565Z" fill="black"/>
<path d="M715.427 267.695V289.877H737.591V267.695H715.427Z" fill="black"/>
<path d="M715.427 375.457V397.638H737.591V375.457H715.427Z" fill="black"/>
<path d="M209.99 294.306V297.607H210.503V294.306H209.99ZM209.99 300.908V304.208H210.503V300.908H209.99ZM209.99 307.509V310.81H210.503V307.509H209.99ZM209.99 314.11V317.411H210.503V314.11H209.99ZM209.99 320.712V324.013H210.503V320.712H209.99ZM209.99 327.313V330.614H210.503V327.313H209.99ZM209.99 333.915V337.215H210.503V333.915H209.99ZM209.99 340.516V343.817H210.503V340.516H209.99ZM209.99 347.118V350.418H210.503V347.118H209.99ZM209.99 353.719V357.02H210.503V353.719H209.99ZM209.99 360.32V363.621H210.503V360.32H209.99ZM209.99 366.922V370.223H210.503V366.922H209.99Z" fill="black"/>
<path d="M215.36 375.456H218.764V374.943H215.36V375.456ZM222.184 375.456H225.587V374.943H222.184V375.456ZM229.008 375.456H232.411V374.943H229.008V375.456ZM235.831 375.456H239.235V374.943H235.831V375.456ZM242.655 375.456H246.059V374.943H242.655V375.456ZM249.479 375.456H252.899V374.943H249.479V375.456ZM256.303 375.456H259.706V374.943H256.303V375.456ZM263.126 375.456H266.547V374.943H263.126V375.456ZM269.95 375.456H273.354V374.943H269.95V375.456ZM276.774 375.456H280.177V374.943H276.774V375.456ZM283.598 375.456H287.001V374.943H283.598V375.456ZM290.421 375.456H293.825V374.943H290.421V375.456ZM297.245 375.456H300.649V374.943H297.245V375.456ZM304.069 375.456H307.472V374.943H304.069V375.456ZM310.893 375.456H314.296V374.943H310.893V375.456ZM317.716 375.456H321.12V374.943H317.716V375.456ZM324.54 375.456H327.944V374.943H324.54V375.456ZM331.364 375.456H334.767V374.943H331.364V375.456ZM338.188 375.456H341.591V374.943H338.188V375.456ZM345.012 375.456H348.415V374.943H345.012V375.456ZM351.835 375.456H355.239V374.943H351.835V375.456ZM358.659 375.456H362.062V374.943H358.659V375.456ZM365.483 375.456H368.903V374.943H365.483V375.456ZM372.306 375.456H375.71V374.943H372.306V375.456ZM379.13 375.456H382.534V374.943H379.13V375.456ZM385.954 375.456H389.357V374.943H385.954V375.456ZM392.778 375.456H396.181V374.943H392.778V375.456ZM399.602 375.456H403.022V374.943H399.602V375.456ZM406.425 375.456H409.829V374.943H406.425V375.456ZM413.249 375.456H416.652V374.943H413.249V375.456ZM420.073 375.456H423.476V374.943H420.073V375.456ZM426.897 375.456H430.3V374.943H426.897V375.456ZM433.72 375.456H437.141V374.943H433.72V375.456ZM440.544 375.456H443.947V374.943H440.544V375.456ZM447.368 375.456H450.771V374.943H447.368V375.456ZM454.192 375.456H457.595V374.943H454.192V375.456ZM461.015 375.456H464.419V374.943H461.015V375.456ZM467.839 375.456H471.242V374.943H467.839V375.456ZM474.663 375.456H478.066V374.943H474.663V375.456ZM481.487 375.456H484.89V374.943H481.487V375.456ZM488.31 375.456H491.731V374.943H488.31V375.456ZM495.134 375.456H498.537V374.943H495.134V375.456ZM501.958 375.456H505.378V374.943H501.958V375.456ZM508.781 375.456H512.185V374.943H508.781V375.456ZM515.605 375.456H519.009V374.943H515.605V375.456ZM522.429 375.456H525.832V374.943H522.429V375.456ZM529.253 375.456H532.656V374.943H529.253V375.456ZM536.077 375.456H539.48V374.943H536.077V375.456ZM542.9 375.456H546.304V374.943H542.9V375.456ZM549.724 375.456H553.127V374.943H549.724V375.456ZM556.548 375.456H559.968V374.943H556.548V375.456ZM563.372 375.456H566.775V374.943H563.372V375.456ZM570.195 375.456H573.599V374.943H570.195V375.456ZM577.019 375.456H580.422V374.943H577.019V375.456ZM583.843 375.456H587.246V374.943H583.843V375.456ZM590.667 375.456H594.087V374.943H590.667V375.456ZM597.49 375.456H600.894V374.943H597.49V375.456ZM604.314 375.456H607.717V374.943H604.314V375.456ZM611.138 375.456H614.541V374.943H611.138V375.456ZM617.962 375.456H621.365V374.943H617.962V375.456ZM624.785 375.456H628.189V374.943H624.785V375.456ZM631.609 375.456H635.012V374.943H631.609V375.456ZM638.433 375.456H641.836V374.943H638.433V375.456ZM645.257 375.456H648.66V374.943H645.257V375.456ZM652.08 375.456H655.484V374.943H652.08V375.456ZM658.904 375.456H662.307V374.943H658.904V375.456ZM665.728 375.456H669.131V374.943H665.728V375.456ZM672.552 375.456H675.955V374.943H672.552V375.456ZM679.375 375.456H682.779V374.943H679.375V375.456ZM686.199 375.456H689.602V374.943H686.199V375.456ZM693.023 375.456H696.426V374.943H693.023V375.456ZM699.847 375.456H703.25V374.943H699.847V375.456ZM706.67 375.456H710.074V374.943H706.67V375.456Z" fill="black"/>
<path d="M715.427 370.257V366.956H714.914V370.257H715.427ZM715.427 363.656V360.355H714.914V363.656H715.427ZM715.427 357.054V353.754H714.914V357.054H715.427ZM715.427 350.453V347.152H714.914V350.453H715.427ZM715.427 343.851V340.551H714.914V343.851H715.427ZM715.427 337.25V333.949H714.914V337.25H715.427ZM715.427 330.649V327.348H714.914V330.649H715.427ZM715.427 324.047V320.747H714.914V324.047H715.427ZM715.427 317.446V314.145H714.914V317.446H715.427ZM715.427 310.844V307.544H714.914V310.844H715.427ZM715.427 304.243V300.942H714.914V304.243H715.427ZM715.427 297.642V294.341H714.914V297.642H715.427Z" fill="black"/>
<path d="M710.057 289.107H706.654V289.62H710.057V289.107ZM703.233 289.107H699.83V289.62H703.233V289.107ZM696.41 289.107H693.006V289.62H696.41V289.107ZM689.586 289.107H686.182V289.62H689.586V289.107ZM682.762 289.107H679.359V289.62H682.762V289.107ZM675.938 289.107H672.535V289.62H675.938V289.107ZM669.114 289.107H665.711V289.62H669.114V289.107ZM662.291 289.107H658.887V289.62H662.291V289.107ZM655.467 289.107H652.064V289.62H655.467V289.107ZM648.643 289.107H645.24V289.62H648.643V289.107ZM641.82 289.107H638.416V289.62H641.82V289.107ZM634.996 289.107H631.592V289.62H634.996V289.107ZM628.172 289.107H624.769V289.62H628.172V289.107ZM621.348 289.107H617.945V289.62H621.348V289.107ZM614.524 289.107H611.121V289.62H614.524V289.107ZM607.701 289.107H604.297V289.62H607.701V289.107ZM600.877 289.107H597.474V289.62H600.877V289.107ZM594.053 289.107H590.633V289.62H594.053V289.107ZM587.23 289.107H583.826V289.62H587.23V289.107ZM580.406 289.107H577.002V289.62H580.406V289.107ZM573.582 289.107H570.179V289.62H573.582V289.107ZM566.758 289.107H563.355V289.62H566.758V289.107ZM559.934 289.107H556.514V289.62H559.934V289.107ZM553.111 289.107H549.707V289.62H553.111V289.107ZM546.287 289.107H542.884V289.62H546.287V289.107ZM539.463 289.107H536.06V289.62H539.463V289.107ZM532.639 289.107H529.236V289.62H532.639V289.107ZM525.816 289.107H522.412V289.62H525.816V289.107ZM518.992 289.107H515.589V289.62H518.992V289.107ZM512.168 289.107H508.765V289.62H512.168V289.107ZM505.344 289.107H501.924V289.62H505.344V289.107ZM498.521 289.107H495.117V289.62H498.521V289.107ZM491.697 289.107H488.276V289.62H491.697V289.107ZM484.873 289.107H481.47V289.62H484.873V289.107ZM478.049 289.107H474.646V289.62H478.049V289.107ZM471.226 289.107H467.822V289.62H471.226V289.107ZM464.402 289.107H460.999V289.62H464.402V289.107ZM457.578 289.107H454.175V289.62H457.578V289.107ZM450.754 289.107H447.351V289.62H450.754V289.107ZM443.931 289.107H440.527V289.62H443.931V289.107ZM437.107 289.107H433.704V289.62H437.107V289.107ZM430.283 289.107H426.88V289.62H430.283V289.107ZM423.459 289.107H420.056V289.62H423.459V289.107ZM416.636 289.107H413.232V289.62H416.636V289.107ZM409.812 289.107H406.409V289.62H409.812V289.107ZM402.988 289.107H399.568V289.62H402.988V289.107ZM396.164 289.107H392.761V289.62H396.164V289.107ZM389.341 289.107H385.937V289.62H389.341V289.107ZM382.517 289.107H379.114V289.62H382.517V289.107ZM375.693 289.107H372.29V289.62H375.693V289.107ZM368.869 289.107H365.449V289.62H368.869V289.107ZM362.046 289.107H358.642V289.62H362.046V289.107ZM355.222 289.107H351.819V289.62H355.222V289.107ZM348.398 289.107H344.995V289.62H348.398V289.107ZM341.574 289.107H338.171V289.62H341.574V289.107ZM334.751 289.107H331.347V289.62H334.751V289.107ZM327.927 289.107H324.523V289.62H327.927V289.107ZM321.103 289.107H317.7V289.62H321.103V289.107ZM314.279 289.107H310.876V289.62H314.279V289.107ZM307.456 289.107H304.052V289.62H307.456V289.107ZM300.632 289.107H297.229V289.62H300.632V289.107ZM293.808 289.107H290.405V289.62H293.808V289.107ZM286.984 289.107H283.581V289.62H286.984V289.107ZM280.161 289.107H276.757V289.62H280.161V289.107ZM273.337 289.107H269.934V289.62H273.337V289.107ZM266.513 289.107H263.093V289.62H266.513V289.107ZM259.689 289.107H256.286V289.62H259.689V289.107ZM252.866 289.107H249.445V289.62H252.866V289.107ZM246.042 289.107H242.639V289.62H246.042V289.107ZM239.218 289.107H235.798V289.62H239.218V289.107ZM232.394 289.107H228.991V289.62H232.394V289.107ZM225.571 289.107H222.167V289.62H225.571V289.107ZM218.747 289.107H215.344V289.62H218.747V289.107Z" fill="black"/>
<path d="M209.99 373.558V375.456H211.957V374.943H210.503V373.541H209.99V373.558ZM713.46 375.456H715.427V373.558H714.914V374.96H713.46V375.473V375.456ZM715.427 291.006V289.09H713.46V289.603H714.914V291.006H715.427ZM211.957 289.09H209.99V291.006H210.503V289.603H211.957V289.09Z" fill="black"/>
<path d="M636.552 228.241C639.185 228.395 643.29 228.737 644.521 229.147C644.846 229.25 645.205 229.079 645.308 228.754C645.411 228.429 645.24 228.07 644.915 227.967C642.88 227.3 634.978 226.89 634.311 226.89H634.26L634.072 226.941L633.986 226.975L633.833 227.112L633.781 227.146V227.163L633.696 227.403V227.454L633.73 227.676V227.711C634.568 229.797 635.32 232.157 634.534 235.885C634.465 236.227 634.671 236.552 635.013 236.621H635.149C635.44 236.621 635.697 236.433 635.765 236.142C636.398 233.098 636.09 230.857 635.526 229.01C645.975 236.21 656.407 251.705 650.405 264.48C648.25 268.995 644.47 272.723 639.442 275.22C639.134 275.374 639.015 275.75 639.168 276.058C639.271 276.281 639.493 276.4 639.733 276.4L640.006 276.332C645.274 273.698 649.259 269.782 651.533 265.01C657.776 251.739 647.275 235.783 636.552 228.206V228.241Z" fill="black"/>
<path d="M182.644 246.728C179.48 246.951 174.555 247.412 173.067 247.977C172.674 248.131 172.246 247.874 172.126 247.43C171.99 246.968 172.212 246.489 172.605 246.335C175.034 245.394 184.543 244.847 185.346 244.847H185.415L185.637 244.933L185.74 244.984L185.928 245.172L185.979 245.223V245.258L186.082 245.6V245.685L186.048 245.993V246.044C185.038 248.952 184.132 252.201 185.073 257.383C185.158 257.845 184.902 258.307 184.491 258.409H184.337C183.995 258.426 183.67 258.153 183.602 257.742C182.832 253.535 183.209 250.422 183.893 247.857C171.34 257.845 158.821 279.308 166.021 297.009C168.603 303.268 173.152 308.416 179.19 311.905C179.566 312.11 179.72 312.64 179.532 313.068C179.395 313.375 179.138 313.546 178.865 313.546L178.523 313.461C172.195 309.818 167.406 304.38 164.67 297.761C157.179 279.359 169.783 257.246 182.661 246.763L182.644 246.728Z" fill="black"/>
<path d="M543.037 166.502V160.79L551.759 167.938L543.037 175.087V169.392H374.804V175.087L366.064 167.938L374.804 160.79V166.502H543.037Z" fill="black"/>
<path d="M439.971 114.244C438.95 114.244 438.078 114.057 437.354 113.683C436.635 113.304 436.108 112.791 435.773 112.145C435.442 111.499 435.345 110.77 435.481 109.959C435.583 109.347 435.802 108.781 436.137 108.261C436.472 107.741 436.881 107.306 437.362 106.956C437.847 106.606 438.367 106.383 438.921 106.286V106.227C438.236 106.038 437.743 105.618 437.442 104.967C437.145 104.311 437.075 103.575 437.23 102.758C437.376 102.005 437.685 101.34 438.156 100.762C438.627 100.183 439.217 99.7316 439.927 99.4061C440.636 99.0757 441.418 98.9105 442.274 98.9105C443.158 98.9105 443.921 99.0902 444.562 99.4498C445.203 99.8045 445.675 100.29 445.976 100.907C446.282 101.52 446.369 102.214 446.238 102.992C446.097 103.822 445.75 104.527 445.196 105.105C444.642 105.678 444.008 106.053 443.294 106.227V106.286C443.819 106.393 444.273 106.633 444.657 107.007C445.045 107.381 445.327 107.845 445.502 108.399C445.677 108.948 445.709 109.546 445.597 110.192C445.466 110.984 445.138 111.686 444.613 112.298C444.088 112.906 443.425 113.382 442.623 113.727C441.827 114.072 440.942 114.244 439.971 114.244ZM440.029 112.641C440.733 112.641 441.358 112.527 441.902 112.298C442.446 112.065 442.888 111.742 443.228 111.329C443.573 110.911 443.789 110.425 443.877 109.871C443.964 109.318 443.904 108.834 443.695 108.421C443.486 108.003 443.16 107.68 442.718 107.452C442.276 107.219 441.749 107.102 441.137 107.102C440.486 107.102 439.883 107.231 439.329 107.488C438.775 107.746 438.314 108.1 437.945 108.552C437.58 109.004 437.352 109.522 437.259 110.105C437.177 110.624 437.233 111.076 437.427 111.46C437.621 111.839 437.94 112.131 438.382 112.335C438.824 112.539 439.373 112.641 440.029 112.641ZM441.195 105.557C441.763 105.557 442.281 105.443 442.747 105.214C443.219 104.986 443.607 104.67 443.913 104.267C444.224 103.864 444.426 103.4 444.518 102.875C444.61 102.37 444.574 101.94 444.409 101.585C444.249 101.226 443.984 100.954 443.614 100.769C443.245 100.579 442.789 100.485 442.244 100.485C441.656 100.485 441.127 100.594 440.656 100.813C440.189 101.031 439.805 101.337 439.504 101.731C439.203 102.124 439.009 102.584 438.921 103.108C438.839 103.618 438.882 104.058 439.052 104.427C439.222 104.792 439.492 105.071 439.861 105.265C440.235 105.46 440.68 105.557 441.195 105.557ZM452.85 114.244C451.878 114.244 451.035 114.081 450.321 113.756C449.612 113.425 449.082 112.966 448.732 112.378C448.383 111.786 448.259 111.096 448.361 110.309H450.168C450.124 110.785 450.207 111.198 450.416 111.548C450.63 111.897 450.945 112.167 451.363 112.357C451.786 112.546 452.291 112.641 452.879 112.641C453.506 112.641 454.094 112.531 454.643 112.313C455.197 112.094 455.661 111.778 456.035 111.365C456.409 110.948 456.64 110.45 456.727 109.871C456.805 109.352 456.747 108.89 456.552 108.487C456.358 108.083 456.023 107.768 455.547 107.539C455.075 107.306 454.458 107.189 453.695 107.189H452.471L452.733 105.586H453.87C454.463 105.586 455.007 105.474 455.503 105.251C455.998 105.027 456.411 104.714 456.742 104.311C457.072 103.903 457.281 103.424 457.368 102.875C457.451 102.394 457.417 101.976 457.266 101.622C457.121 101.262 456.868 100.983 456.509 100.783C456.154 100.584 455.702 100.485 455.153 100.485C454.628 100.485 454.113 100.579 453.608 100.769C453.108 100.954 452.68 101.223 452.325 101.578C451.971 101.928 451.747 102.35 451.655 102.846H449.906C450.056 102.069 450.394 101.386 450.919 100.798C451.443 100.205 452.082 99.7437 452.835 99.4133C453.593 99.0781 454.395 98.9105 455.24 98.9105C456.178 98.9105 456.951 99.1048 457.558 99.4935C458.17 99.8773 458.607 100.383 458.87 101.009C459.132 101.631 459.205 102.302 459.088 103.021C458.957 103.842 458.62 104.537 458.075 105.105C457.531 105.674 456.868 106.077 456.086 106.315V106.402C457.004 106.563 457.67 106.985 458.083 107.67C458.501 108.351 458.632 109.162 458.476 110.105C458.34 110.95 458.012 111.684 457.492 112.306C456.973 112.923 456.314 113.401 455.517 113.741C454.721 114.076 453.831 114.244 452.85 114.244ZM460.145 118.238L462.725 102.846H464.387L464.095 104.624H464.299C464.455 104.43 464.668 104.182 464.941 103.881C465.217 103.575 465.589 103.303 466.056 103.065C466.527 102.822 467.127 102.7 467.856 102.7C468.798 102.7 469.588 102.936 470.224 103.407C470.861 103.878 471.31 104.546 471.572 105.411C471.835 106.276 471.869 107.296 471.675 108.472C471.48 109.658 471.108 110.685 470.559 111.555C470.01 112.42 469.34 113.09 468.548 113.566C467.756 114.038 466.894 114.273 465.961 114.273C465.242 114.273 464.685 114.154 464.292 113.916C463.898 113.673 463.612 113.399 463.432 113.093C463.252 112.782 463.114 112.524 463.017 112.32H462.871L461.88 118.238H460.145ZM463.483 108.443C463.347 109.288 463.347 110.034 463.483 110.68C463.624 111.322 463.903 111.825 464.321 112.189C464.744 112.548 465.3 112.728 465.99 112.728C466.709 112.728 467.338 112.539 467.878 112.16C468.422 111.776 468.869 111.261 469.219 110.615C469.573 109.964 469.819 109.24 469.955 108.443C470.081 107.656 470.076 106.947 469.94 106.315C469.804 105.678 469.527 105.176 469.109 104.806C468.691 104.432 468.118 104.245 467.389 104.245C466.69 104.245 466.07 104.423 465.531 104.777C464.996 105.127 464.554 105.618 464.204 106.249C463.86 106.876 463.619 107.607 463.483 108.443Z" fill="black"/>
<path d="M476.041 102.846L477.965 107.423L481.405 102.846H483.387L478.84 108.443L481.521 114.04H479.539L477.586 109.696L474.175 114.04H472.193L476.682 108.443L474.059 102.846H476.041Z" fill="black"/>
<path d="M8.56962 327.292L6.09176 342.218H4.28437L6.44157 329.187H6.35412L2.30208 331.607L2.62274 329.77L6.76224 327.292H8.56962ZM15.4275 342.422C14.8007 342.417 14.1934 342.298 13.6055 342.065C13.0176 341.832 12.5099 341.445 12.0824 340.906C11.6548 340.362 11.3609 339.626 11.2005 338.698C11.0451 337.77 11.0839 336.611 11.3171 335.221C11.5358 333.914 11.8492 332.758 12.2573 331.752C12.6702 330.742 13.1634 329.892 13.7367 329.202C14.31 328.507 14.9538 327.982 15.668 327.628C16.387 327.268 17.162 327.088 17.9928 327.088C18.8188 327.088 19.5354 327.256 20.1427 327.591C20.7549 327.921 21.2262 328.383 21.5566 328.976C21.8918 329.564 22.0546 330.246 22.0448 331.024H20.3249C20.3006 330.343 20.0941 329.785 19.7054 329.347C19.3216 328.91 18.7313 328.692 17.9345 328.692C16.7782 328.692 15.7676 329.185 14.9028 330.171C14.0379 331.157 13.4452 332.598 13.1245 334.493L13.2411 334.376C13.5812 333.968 13.9578 333.621 14.3707 333.334C14.7837 333.047 15.2234 332.829 15.6898 332.678C16.1611 332.527 16.647 332.452 17.1474 332.452C18.022 332.452 18.7872 332.671 19.4431 333.108C20.099 333.545 20.5824 334.145 20.8934 334.908C21.2043 335.671 21.2772 336.543 21.112 337.524C20.9565 338.428 20.6164 339.254 20.0917 340.002C19.5718 340.746 18.9111 341.338 18.1094 341.781C17.3126 342.218 16.4186 342.432 15.4275 342.422ZM15.4858 340.819C16.1077 340.819 16.6956 340.661 17.2494 340.345C17.8033 340.029 18.2722 339.604 18.656 339.069C19.0398 338.535 19.2852 337.942 19.3921 337.291C19.4892 336.698 19.4455 336.157 19.2609 335.666C19.0763 335.175 18.7775 334.784 18.3645 334.493C17.9515 334.201 17.4486 334.055 16.8559 334.055C16.3846 334.055 15.9255 334.15 15.4785 334.34C15.0364 334.529 14.6331 334.789 14.2687 335.119C13.9092 335.445 13.608 335.817 13.365 336.234C13.1221 336.652 12.9642 337.092 12.8913 337.554C12.7941 338.127 12.8379 338.661 13.0225 339.157C13.2071 339.652 13.5108 340.053 13.9335 340.359C14.3562 340.665 14.8736 340.819 15.4858 340.819ZM23.4532 342.218L25.9311 327.292H30.9743C32.1403 327.292 33.061 327.501 33.7364 327.919C34.4166 328.337 34.8757 328.903 35.1138 329.617C35.3567 330.331 35.4053 331.131 35.2595 332.015C35.1138 332.889 34.8004 333.686 34.3194 334.405C33.8433 335.124 33.1971 335.698 32.3808 336.125C31.5694 336.553 30.5856 336.766 29.4293 336.766H25.8145L26.0768 335.163H29.6333C30.4301 335.163 31.0957 335.025 31.6302 334.748C32.1646 334.471 32.5825 334.094 32.8837 333.618C33.1849 333.142 33.3841 332.608 33.4813 332.015C33.5785 331.412 33.5542 330.878 33.4084 330.411C33.2675 329.94 32.9736 329.571 32.5266 329.304C32.0845 329.032 31.4601 328.896 30.6536 328.896H27.4761L25.2606 342.218H23.4532ZM39.8126 327.292L42.6403 333.502H42.7569L47.6252 327.292H49.7532L43.8355 334.755L47.2754 342.218H45.1473L42.3196 336.125H42.203L37.3347 342.218H35.2067L41.2702 334.755L37.6846 327.292H39.8126Z" fill="black"/>
</svg>
