<svg width="610" height="592" viewBox="0 0 610 592" fill="none" xmlns="http://www.w3.org/2000/svg">
<path d="M47.8824 106.147V110.03H49.165V106.147H47.8824ZM47.8824 112.629V116.511H49.165V112.629H47.8824ZM47.8824 119.111V122.993H49.165V119.111H47.8824ZM47.8824 125.593V129.475H49.165V125.593H47.8824ZM47.8824 132.057V135.939H49.165V132.057H47.8824ZM47.8824 138.539V142.421H49.165V138.539H47.8824ZM47.8824 145.021V148.903H49.165V145.021H47.8824ZM47.8824 151.502V155.385H49.165V151.502H47.8824ZM47.8824 157.967V161.849H49.165V157.967H47.8824ZM47.8824 164.449V168.331H49.165V164.449H47.8824ZM47.8824 170.93V174.813H49.165V170.93H47.8824ZM47.8824 177.412V181.294H49.165V177.412H47.8824ZM47.8824 183.894V187.776H49.165V183.894H47.8824ZM47.8824 190.375V194.258H49.165V190.375H47.8824ZM47.8824 196.84V200.722H49.165V196.84H47.8824ZM47.8824 203.322V207.204H49.165V203.322H47.8824ZM47.8824 209.786V213.669H49.165V209.786H47.8824ZM47.8824 216.268V220.15H49.165V216.268H47.8824ZM47.8824 222.75V226.632H49.165V222.75H47.8824ZM47.8824 229.232V233.114H49.165V229.232H47.8824ZM47.8824 235.713V239.595H49.165V235.713H47.8824ZM47.8824 242.195V246.077H49.165V242.195H47.8824ZM47.8824 248.677V252.559H49.165V248.677H47.8824ZM47.8824 255.141V259.023H49.165V255.141H47.8824ZM47.8824 261.623V265.505H49.165V261.623H47.8824ZM47.8824 268.105V271.987H49.165V268.105H47.8824ZM47.8824 274.586V278.469H49.165V274.586H47.8824ZM47.8824 281.068V284.95H49.165V281.068H47.8824ZM47.8824 287.55V291.432H49.165V287.55H47.8824ZM47.8824 294.014V297.897H49.165V294.014H47.8824ZM47.8824 300.496V304.378H49.165V300.496H47.8824ZM47.8824 306.978V310.86H49.165V306.978H47.8824ZM47.8824 313.46V317.342H49.165V313.46H47.8824ZM47.8824 319.941V323.823H49.165V319.941H47.8824ZM47.8824 326.423V330.305H49.165V326.423H47.8824ZM47.8824 332.888V336.77H49.165V332.888H47.8824ZM47.8824 339.352V343.234H49.165V339.352H47.8824ZM47.8824 345.834V349.716H49.165V345.834H47.8824ZM47.8824 352.316V356.198H49.165V352.316H47.8824ZM47.8824 358.797V362.68H49.165V358.797H47.8824ZM47.8824 365.279V369.161H49.165V365.279H47.8824ZM47.8824 371.744V375.626H49.165V371.744H47.8824ZM47.8824 378.208V382.09H49.165V378.208H47.8824ZM47.8824 384.69V388.572H49.165V384.69H47.8824ZM47.8824 391.172V395.054H49.165V391.172H47.8824ZM47.8824 397.653V401.536H49.165V397.653H47.8824ZM47.8824 404.135V408.017H49.165V404.135H47.8824ZM47.8824 410.617V414.499H49.165V410.617H47.8824ZM47.8824 417.099V420.981H49.165V417.099H47.8824ZM47.8824 423.563V427.445H49.165V423.563H47.8824ZM47.8824 430.045V433.927H49.165V430.045H47.8824Z" fill="#D5D7E0"/>
<path d="M478.292 561.885H474.478V563.167H478.292V561.885ZM471.947 561.885H468.133V563.167H471.947V561.885ZM465.602 561.885H461.789V563.167H465.602V561.885ZM459.257 561.885H455.444V563.167H459.257V561.885ZM452.912 561.885H449.099V563.167H452.912V561.885ZM446.568 561.885H442.754V563.167H446.568V561.885ZM440.223 561.885H436.409V563.167H440.223V561.885ZM433.878 561.885H430.064V563.167H433.878V561.885ZM427.533 561.885H423.719V563.167H427.533V561.885ZM421.188 561.885H417.374V563.167H421.188V561.885ZM414.843 561.885H411.029V563.167H414.843V561.885ZM408.498 561.885H404.684V563.167H408.498V561.885ZM402.153 561.885H398.34V563.167H402.153V561.885ZM395.809 561.885H391.995V563.167H395.809V561.885ZM389.464 561.885H385.65V563.167H389.464V561.885ZM383.119 561.885H379.305V563.167H383.119V561.885ZM376.774 561.885H372.96V563.167H376.774V561.885ZM370.429 561.885H366.615V563.167H370.429V561.885ZM364.084 561.885H360.27V563.167H364.084V561.885ZM357.739 561.885H353.925V563.167H357.739V561.885ZM351.394 561.885H347.58V563.167H351.394V561.885ZM345.049 561.885H341.236V563.167H345.049V561.885ZM338.705 561.885H334.891V563.167H338.705V561.885ZM332.359 561.885H328.546V563.167H332.359V561.885ZM326.015 561.885H322.201V563.167H326.015V561.885ZM319.67 561.885H315.856V563.167H319.67V561.885ZM313.325 561.885H309.511V563.167H313.325V561.885ZM306.98 561.885H303.166V563.167H306.98V561.885ZM300.635 561.885H296.821V563.167H300.635V561.885ZM294.29 561.885H290.476V563.167H294.29V561.885ZM287.945 561.885H284.132V563.167H287.945V561.885ZM281.6 561.885H277.787V563.167H281.6V561.885ZM275.256 561.885H271.442V563.167H275.256V561.885ZM268.911 561.885H265.097V563.167H268.911V561.885ZM262.566 561.885H258.752V563.167H262.566V561.885ZM256.221 561.885H252.407V563.167H256.221V561.885ZM249.876 561.885H246.062V563.167H249.876V561.885ZM243.531 561.885H239.717V563.167H243.531V561.885ZM237.186 561.885H233.372V563.167H237.186V561.885ZM230.841 561.885H227.027V563.167H230.841V561.885ZM224.496 561.885H220.683V563.167H224.496V561.885ZM218.152 561.885H214.338V563.167H218.152V561.885ZM211.807 561.885H207.993V563.167H211.807V561.885ZM205.462 561.885H201.648V563.167H205.462V561.885Z" fill="#D5D7E0"/>
<path d="M70.3719 1.70472H609.38V0.849609H70.3719" fill="#DEDEE2"/>
<path d="M70.3719 17.0621H609.38V16.207H70.3719" fill="#DEDEE2"/>
<path d="M70.3719 32.403H609.38V31.5479H70.3719" fill="#DEDEE2"/>
<path d="M70.3719 47.7614H609.38V46.9062H70.3719V47.7614Z" fill="#DEDEE2"/>
<path d="M70.3719 63.1012H609.38V62.2461H70.3719V63.1012Z" fill="#DEDEE2"/>
<path d="M70.3719 78.4586H609.38V77.6035H70.3719V78.4586Z" fill="#DEDEE2"/>
<path d="M70.3719 93.816H609.38V92.9609H70.3719V93.816Z" fill="#DEDEE2"/>
<path d="M70.3719 109.158H609.38V108.303H70.3719V109.158Z" fill="#DEDEE2"/>
<path d="M70.3719 124.515H609.38V123.66H70.3719V124.515Z" fill="#DEDEE2"/>
<path d="M70.3719 139.873H609.38V139.018H70.3719V139.873Z" fill="#DEDEE2"/>
<path d="M70.3719 155.214H609.38V154.358H70.3719V155.214Z" fill="#DEDEE2"/>
<path d="M70.3719 170.572H609.38V169.717H70.3719V170.572Z" fill="#DEDEE2"/>
<path d="M70.3719 185.929H609.38V185.074H70.3719V185.929Z" fill="#DEDEE2"/>
<path d="M70.3719 201.269H609.38V200.414H70.3719V201.269Z" fill="#DEDEE2"/>
<path d="M70.3719 216.627H609.38V215.771H70.3719V216.627Z" fill="#DEDEE2"/>
<path d="M70.3719 231.968H609.38V231.13H70.3719V231.968Z" fill="#DEDEE2"/>
<path d="M70.3719 247.326H609.38V246.471H70.3719V247.326Z" fill="#DEDEE2"/>
<path d="M70.3719 262.683H609.38V261.828H70.3719V262.683Z" fill="#DEDEE2"/>
<path d="M70.3719 278.023H609.38V277.168H70.3719V278.023Z" fill="#DEDEE2"/>
<path d="M70.3719 293.381H609.38V292.526H70.3719V293.381Z" fill="#DEDEE2"/>
<path d="M70.3719 308.739H609.38V307.884H70.3719V308.739Z" fill="#DEDEE2"/>
<path d="M70.3719 324.08H609.38V323.225H70.3719V324.08Z" fill="#DEDEE2"/>
<path d="M70.3719 339.437H609.38V338.582H70.3719V339.437Z" fill="#DEDEE2"/>
<path d="M70.3719 354.796H609.38V353.94H70.3719V354.796Z" fill="#DEDEE2"/>
<path d="M70.3719 370.136H609.38V369.281H70.3719V370.136Z" fill="#DEDEE2"/>
<path d="M70.3719 385.494H609.38V384.639H70.3719V385.494Z" fill="#DEDEE2"/>
<path d="M70.3719 400.851H609.38V399.979H70.3719V400.851Z" fill="#DEDEE2"/>
<path d="M70.3719 416.192H609.38V415.337H70.3719V416.192Z" fill="#DEDEE2"/>
<path d="M70.3719 431.549H609.38V430.694H70.3719V431.549Z" fill="#DEDEE2"/>
<path d="M70.3719 446.89H609.38V446.035H70.3719" fill="#DEDEE2"/>
<path d="M70.3719 462.248H609.38V461.393H70.3719" fill="#DEDEE2"/>
<path d="M70.3719 477.606H609.38V476.751H70.3719" fill="#DEDEE2"/>
<path d="M70.3719 492.947H609.38V492.092H70.3719" fill="#DEDEE2"/>
<path d="M70.3719 508.304H609.38V507.449H70.3719" fill="#DEDEE2"/>
<path d="M70.3719 523.662H609.38V522.807H70.3719" fill="#DEDEE2"/>
<path d="M70.3719 539.003H609.38V538.147H70.3719" fill="#DEDEE2"/>
<path d="M608.097 0.421875V539.43H608.953V0.421875" fill="#DEDEE2"/>
<path d="M592.74 0.421875V539.43H593.595V0.421875" fill="#DEDEE2"/>
<path d="M577.399 0.421875V539.43H578.254V0.421875" fill="#DEDEE2"/>
<path d="M562.041 0.421875V539.43H562.896V0.421875" fill="#DEDEE2"/>
<path d="M546.701 0.421875V539.43H547.556V0.421875" fill="#DEDEE2"/>
<path d="M531.343 0.421875V539.43H532.198V0.421875" fill="#DEDEE2"/>
<path d="M515.985 0.421875V539.43H516.84V0.421875H515.985Z" fill="#DEDEE2"/>
<path d="M500.645 0.421875V539.43H501.5V0.421875H500.645Z" fill="#DEDEE2"/>
<path d="M485.287 0.421875V539.43H486.142V0.421875H485.287Z" fill="#DEDEE2"/>
<path d="M469.929 0.421875V539.43H470.784V0.421875H469.929Z" fill="#DEDEE2"/>
<path d="M454.589 0.421875V539.43H455.444V0.421875H454.589Z" fill="#DEDEE2"/>
<path d="M439.231 0.421875V539.43H440.086V0.421875H439.231Z" fill="#DEDEE2"/>
<path d="M423.873 0.421875V539.43H424.728V0.421875H423.873Z" fill="#DEDEE2"/>
<path d="M408.532 0.421875V539.43H409.388V0.421875H408.532Z" fill="#DEDEE2"/>
<path d="M393.175 0.421875V539.43H394.03V0.421875H393.175Z" fill="#DEDEE2"/>
<path d="M377.834 0.421875V539.43H378.689V0.421875H377.834Z" fill="#DEDEE2"/>
<path d="M362.477 0.421875V539.43H363.332V0.421875H362.477Z" fill="#DEDEE2"/>
<path d="M347.118 0.421875V539.43H347.974V0.421875H347.118Z" fill="#DEDEE2"/>
<path d="M331.778 0.421875V539.43H332.633V0.421875H331.778Z" fill="#DEDEE2"/>
<path d="M316.42 0.421875V539.43H317.275V0.421875H316.42Z" fill="#DEDEE2"/>
<path d="M301.062 0.421875V539.43H301.918V0.421875H301.062Z" fill="#DEDEE2"/>
<path d="M285.722 0.421875V539.43H286.577V0.421875H285.722Z" fill="#DEDEE2"/>
<path d="M270.364 0.421875V539.43H271.219V0.421875H270.364Z" fill="#DEDEE2"/>
<path d="M255.007 0.421875V539.43H255.879V0.421875H255.007Z" fill="#DEDEE2"/>
<path d="M239.666 0.421875V539.43H240.521V0.421875H239.666Z" fill="#DEDEE2"/>
<path d="M224.308 0.421875V539.43H225.163V0.421875H224.308Z" fill="#DEDEE2"/>
<path d="M208.968 0.421875V539.43H209.823V0.421875H208.968Z" fill="#DEDEE2"/>
<path d="M193.61 0.421875V539.43H194.465V0.421875H193.61Z" fill="#DEDEE2"/>
<path d="M178.252 0.421875V539.43H179.107V0.421875" fill="#DEDEE2"/>
<path d="M162.911 0.421875V539.43H163.766V0.421875" fill="#DEDEE2"/>
<path d="M147.554 0.421875V539.43H148.409V0.421875" fill="#DEDEE2"/>
<path d="M132.196 0.421875V539.43H133.051V0.421875" fill="#DEDEE2"/>
<path d="M116.855 0.421875V539.43H117.711V0.421875" fill="#DEDEE2"/>
<path d="M101.498 0.421875V539.43H102.353V0.421875" fill="#DEDEE2"/>
<path d="M86.1401 0.421875V539.43H86.9952V0.421875" fill="#DEDEE2"/>
<path d="M70.7995 0.421875V539.43H71.6546V0.421875" fill="#DEDEE2"/>
<path d="M34.5088 269.797L38.4935 264.444H37.0057L33.7904 268.857L30.5924 264.444H29.0874L33.055 269.797L28.8821 275.407H30.4043L33.7904 270.755L37.1766 275.407H38.6816L34.5088 269.797Z" fill="#1D2675"/>
<path d="M362.921 579.295L366.906 573.925H365.418L362.203 578.337L359.005 573.925H357.5L361.467 579.278L357.295 584.887H358.817L362.203 580.235L365.589 584.887H367.094L362.921 579.295Z" fill="#1D2675"/>
<path d="M9.34126 263.585L6.86339 278.511H4.60416L6.70306 265.844H6.6156L2.65831 268.177L3.0227 266.019L7.14762 263.585H9.34126ZM16.0023 278.715C14.9432 278.715 14.0371 278.528 13.284 278.154C12.5309 277.775 11.977 277.265 11.6224 276.623C11.2677 275.977 11.1584 275.248 11.2944 274.437C11.3964 273.825 11.6199 273.261 11.9649 272.746C12.3147 272.226 12.7423 271.791 13.2475 271.442C13.7528 271.092 14.2921 270.868 14.8654 270.771V270.705C14.1561 270.526 13.6362 270.113 13.3058 269.467C12.9755 268.82 12.8856 268.089 13.0362 267.273C13.182 266.51 13.5026 265.837 13.9982 265.254C14.4938 264.671 15.1157 264.214 15.8639 263.884C16.617 263.549 17.4453 263.381 18.349 263.381C19.277 263.381 20.0763 263.561 20.7467 263.92C21.4221 264.275 21.9201 264.759 22.2407 265.371C22.5663 265.983 22.6634 266.678 22.5323 267.455C22.3914 268.286 22.0343 268.993 21.4609 269.576C20.8876 270.159 20.2269 270.535 19.4786 270.705V270.771C20.0277 270.878 20.5014 271.116 20.8998 271.485C21.303 271.85 21.597 272.304 21.7816 272.848C21.9662 273.392 22.0051 273.983 21.8982 274.619C21.7622 275.416 21.4196 276.123 20.8706 276.74C20.3216 277.357 19.6268 277.84 18.7863 278.19C17.9506 278.54 17.0226 278.715 16.0023 278.715ZM16.1408 276.871C16.7821 276.871 17.3506 276.764 17.8462 276.55C18.3466 276.332 18.7547 276.03 19.0705 275.647C19.3912 275.258 19.5928 274.809 19.6754 274.298C19.758 273.783 19.7021 273.334 19.5078 272.95C19.3135 272.561 19.0122 272.26 18.6041 272.046C18.196 271.833 17.7101 271.726 17.1465 271.726C16.5489 271.726 15.9951 271.845 15.4849 272.083C14.9796 272.316 14.5569 272.642 14.2168 273.059C13.8816 273.472 13.6727 273.946 13.5901 274.481C13.5123 274.966 13.5633 275.389 13.7431 275.749C13.9229 276.108 14.2168 276.385 14.6249 276.579C15.0379 276.774 15.5432 276.871 16.1408 276.871ZM17.285 269.926C17.8049 269.926 18.281 269.821 18.7134 269.612C19.1458 269.399 19.5029 269.107 19.7847 268.738C20.0714 268.364 20.2584 267.936 20.3459 267.455C20.4285 266.989 20.3945 266.59 20.2439 266.26C20.0933 265.925 19.8455 265.67 19.5005 265.495C19.1604 265.315 18.7377 265.225 18.2324 265.225C17.698 265.225 17.2121 265.327 16.7749 265.531C16.3424 265.73 15.9853 266.012 15.7035 266.376C15.4266 266.741 15.2468 267.164 15.1642 267.645C15.0914 268.116 15.1327 268.524 15.2881 268.869C15.4485 269.209 15.7011 269.471 16.0461 269.656C16.391 269.836 16.804 269.926 17.285 269.926Z" fill="#1D2675"/>
<path d="M338.096 571.303L335.618 586.229H333.359L335.457 573.562H335.37L331.413 575.894L331.777 573.737L335.902 571.303H338.096ZM344.968 586.433C344.288 586.428 343.637 586.304 343.015 586.061C342.393 585.818 341.859 585.42 341.412 584.866C340.969 584.307 340.666 583.559 340.501 582.621C340.335 581.683 340.369 580.52 340.603 579.13C340.816 577.847 341.132 576.711 341.55 575.719C341.973 574.723 342.481 573.883 343.073 573.198C343.666 572.508 344.332 571.986 345.07 571.631C345.813 571.276 346.613 571.099 347.468 571.099C348.347 571.099 349.11 571.274 349.756 571.624C350.402 571.973 350.898 572.454 351.243 573.067C351.588 573.679 351.751 574.381 351.731 575.173H349.574C349.555 574.541 349.36 574.034 348.991 573.65C348.627 573.261 348.085 573.067 347.366 573.067C346.268 573.067 345.315 573.54 344.509 574.488C343.702 575.43 343.149 576.781 342.847 578.54L342.964 578.401C343.289 577.984 343.659 577.629 344.072 577.337C344.49 577.046 344.937 576.825 345.413 576.674C345.894 576.524 346.389 576.448 346.899 576.448C347.784 576.448 348.551 576.667 349.202 577.104C349.853 577.537 350.33 578.132 350.631 578.89C350.937 579.648 351.007 580.515 350.842 581.491C350.682 582.419 350.332 583.26 349.793 584.013C349.253 584.761 348.568 585.354 347.737 585.791C346.912 586.229 345.988 586.442 344.968 586.433ZM345.041 584.538C345.624 584.538 346.175 584.392 346.695 584.1C347.215 583.804 347.652 583.408 348.007 582.913C348.367 582.412 348.595 581.858 348.692 581.251C348.78 580.702 348.738 580.201 348.568 579.75C348.398 579.298 348.121 578.941 347.737 578.678C347.359 578.411 346.892 578.277 346.338 578.277C345.901 578.277 345.473 578.365 345.056 578.54C344.643 578.715 344.268 578.955 343.933 579.261C343.598 579.563 343.316 579.91 343.088 580.303C342.859 580.692 342.711 581.105 342.643 581.542C342.556 582.077 342.597 582.572 342.767 583.029C342.937 583.481 343.217 583.845 343.605 584.122C343.999 584.399 344.477 584.538 345.041 584.538Z" fill="#1D2675"/>
</svg>
