<svg width="165" height="27" viewBox="0 0 165 27" fill="none" xmlns="http://www.w3.org/2000/svg">
<path d="M1.94445 1.58166C4.88578 6.68988 7.8271 11.7981 10.9249 17.184C14.0148 11.8216 16.9953 6.65468 19.9718 1.48779C20.0735 1.50344 20.1791 1.51908 20.2808 1.53473C20.7228 7.89849 21.1687 14.2583 21.6185 20.7394H19.346C19.0683 16.6912 18.7828 12.5765 18.5011 8.45781C18.3916 8.43826 18.2821 8.4187 18.1726 8.39523C15.728 12.6625 13.2834 16.9298 10.6863 21.463C8.12437 16.9924 5.66805 12.7055 3.21173 8.4187C3.09439 8.44217 2.97705 8.46172 2.85971 8.48518C2.6172 12.5608 2.3747 16.6403 2.12829 20.7864H0.305603C0.739761 14.3796 1.17001 8.01582 1.60026 1.65206L1.94054 1.58166H1.94445Z" fill="#FEFEFE"/>
<path d="M92.4919 21.1577C87.2507 16.1317 82.1308 11.219 77.003 6.29853V20.7627H75.2038V1.27637C80.3707 6.37285 85.385 11.3129 90.7083 16.5619V1.43282H92.4919V21.1577Z" fill="#FEFEFE"/>
<path d="M149.081 1.51905H151.549V9.86978H162.204V1.55425H164.754V20.7707H162.266V11.7668H151.596V20.7629H149.077V1.51123L149.081 1.51905Z" fill="#FEFEFE"/>
<path d="M144.767 4.61644C139.913 1.8785 135.172 2.17184 132.427 5.2931C129.974 8.08189 129.896 13.4209 132.305 16.37C134.367 18.8928 139.185 21.0363 144.462 18.0715C145.045 19.6125 144.36 20.3713 142.889 20.7468C138.067 21.9867 131.551 21.1145 129.176 15.885C127.404 11.9815 127.455 8.13273 130.013 4.62035C132.485 1.2253 136.178 0.720734 140.069 1.0884C141.079 1.18227 142.084 1.44434 143.069 1.71813C145.158 2.30092 145.15 2.32439 144.759 4.61644H144.767Z" fill="#FEFEFE"/>
<path d="M32.8596 1.02979C35.7579 7.74948 38.5389 14.2071 41.3629 20.7586H38.7931C38.1478 19.198 37.5493 17.5787 36.7866 16.0376C36.5637 15.5878 35.8831 15.1224 35.3903 15.0911C33.548 14.9776 31.698 15.0833 29.8518 15.0285C29.05 15.005 28.6706 15.2827 28.4125 16.0376C27.8727 17.6217 27.2195 19.1667 26.5898 20.7938H24.3955C27.1843 14.2814 29.9574 7.79641 32.8557 1.02979H32.8596ZM35.6914 13.4092C34.651 11.0037 33.6693 8.74296 32.5311 6.10672C31.4398 8.78208 30.5207 11.0389 29.5546 13.4092H35.6914Z" fill="#FEFEFE"/>
<path d="M114.579 1.49121H124.201C124.232 2.03489 124.26 2.5199 124.295 3.1066H117.098V9.81065H123.908C123.943 10.4482 123.97 10.9762 124.006 11.6333H116.985C116.985 14.0193 116.946 16.2878 117.039 18.5486C117.051 18.8028 117.814 19.2214 118.236 19.237C120.427 19.3074 122.625 19.2683 124.921 19.2683V20.8015H114.579V1.49513V1.49121Z" fill="#FEFEFE"/>
<path d="M95.9926 3.15741V1.51465H110.926C110.965 2.01139 111.004 2.48466 111.055 3.07527H104.719V20.7663H102.176V3.15741H95.9965H95.9926Z" fill="#FEFEFE"/>
<path d="M62.9104 3.16931H55.4672V9.87727H62.312V11.6139H55.4945V20.7586H52.9796V1.4444C55.9404 1.4444 58.8896 1.40529 61.8309 1.50699C62.136 1.51872 62.4137 2.37922 62.9104 3.16931Z" fill="#FEFEFE"/>
<path d="M40.5259 25.9566C43.7019 25.4051 44.5194 23.1483 44.5546 20.4808C44.625 14.6802 44.5976 8.87971 44.6093 3.07919C44.6093 2.58636 44.6093 2.08962 44.6093 1.51465H46.9561C46.9561 7.88623 47.05 14.1835 46.917 20.4768C46.8466 23.7585 44.9692 25.8941 42.0709 26.5316C41.6054 26.6333 41.0852 26.4729 40.5885 26.4299C40.5689 26.2735 40.5454 26.1131 40.5259 25.9566Z" fill="#FEFEFE"/>
<path d="M66.9626 1.51904H69.3602V20.7629H66.9626V1.51904Z" fill="#FEFEFE"/>
</svg>
