<svg width="266" height="42" viewBox="0 0 266 42" fill="none" xmlns="http://www.w3.org/2000/svg">
<path d="M3.22386 1.55532C7.95597 9.7736 12.6881 17.9919 17.6719 26.657C22.6431 18.0297 27.4382 9.71697 32.2269 1.4043C32.3905 1.42947 32.5604 1.45464 32.724 1.47981C33.4351 11.7181 34.1525 21.95 34.8762 32.377H31.2201C30.7733 25.8641 30.3139 19.2441 29.8609 12.6179C29.6847 12.5865 29.5085 12.555 29.3323 12.5172C25.3993 19.3826 21.4664 26.2479 17.2881 33.5412C13.1663 26.3486 9.21451 19.4518 5.2627 12.555C5.07392 12.5927 4.88513 12.6242 4.69635 12.662C4.30621 19.219 3.91606 25.7823 3.51962 32.4526H0.587219C1.28571 22.1451 1.97791 11.9068 2.6701 1.66858L3.21757 1.55532H3.22386Z" fill="#3D77B9"/>
<path d="M148.9 33.0503C140.468 24.9642 132.231 17.0605 123.981 9.1443V32.4148H121.086V1.06445C129.399 9.26386 137.466 17.2116 146.03 25.6564V1.31616H148.9V33.0503Z" fill="#3D77B9"/>
<path d="M239.943 1.45447H243.913V14.8894H261.055V1.51111H265.158V32.4272H261.155V17.9414H243.989V32.4146H239.936V1.44189L239.943 1.45447Z" fill="#3D77B9"/>
<path d="M233.002 6.4384C225.193 2.0335 217.566 2.50544 213.148 7.52703C209.203 12.0137 209.077 20.6033 212.953 25.348C216.27 29.4068 224.022 32.8552 232.511 28.0853C233.449 30.5647 232.347 31.7855 229.981 32.3896C222.223 34.3843 211.739 32.9811 207.919 24.5677C205.069 18.2876 205.15 12.0955 209.266 6.44468C213.243 0.982607 219.183 0.170847 225.444 0.762362C227.068 0.913388 228.685 1.33501 230.271 1.7755C233.631 2.71311 233.619 2.75087 232.989 6.4384H233.002Z" fill="#3D77B9"/>
<path d="M52.9614 0.667969C57.6243 11.4789 62.0984 21.8681 66.6417 32.4084H62.5074C61.4691 29.8976 60.5063 27.2924 59.2793 24.8131C58.9206 24.0895 57.8257 23.3406 57.0328 23.2903C54.0689 23.1078 51.0925 23.2777 48.1223 23.1896C46.8323 23.1518 46.2219 23.5986 45.8066 24.8131C44.9382 27.3617 43.8873 29.8473 42.8742 32.4651H39.344C43.8307 21.9877 48.2922 11.5544 52.9551 0.667969H52.9614ZM57.5173 20.5844C55.8435 16.7144 54.264 13.0772 52.4328 8.83592C50.6771 13.1401 49.1984 16.771 47.6441 20.5844H57.5173Z" fill="#3D77B9"/>
<path d="M184.435 1.41016H199.915C199.965 2.28484 200.009 3.06514 200.066 4.00905H188.487V14.7948H199.443C199.5 15.8205 199.544 16.67 199.6 17.7272H188.305C188.305 21.5657 188.242 25.2155 188.393 28.8527C188.412 29.2617 189.639 29.9351 190.318 29.9602C193.842 30.0735 197.379 30.0106 201.073 30.0106V32.4773H184.435V1.41646V1.41016Z" fill="#3D77B9"/>
<path d="M154.532 4.09117V1.44824H178.557C178.62 2.24742 178.683 3.00883 178.765 3.95903H168.571V32.421H164.481V4.09117H154.538H154.532Z" fill="#3D77B9"/>
<path d="M101.308 4.10974H89.3332V14.9017H100.345V17.6957H89.3773V32.4081H85.3311V1.33465C90.0946 1.33465 94.8393 1.27172 99.5714 1.43533C100.062 1.45421 100.509 2.83861 101.308 4.10974Z" fill="#3D77B9"/>
<path d="M65.2951 40.7714C70.4048 39.8841 71.72 36.2532 71.7766 31.9616C71.8899 22.6295 71.8458 13.2974 71.8647 3.96533C71.8647 3.17245 71.8647 2.37327 71.8647 1.44824H75.6403C75.6403 11.6991 75.7913 21.8303 75.5774 31.9553C75.4641 37.2349 72.4436 40.6707 67.7807 41.6964C67.0319 41.8601 66.195 41.602 65.3958 41.5328C65.3643 41.2811 65.3266 41.0231 65.2951 40.7714Z" fill="#3D77B9"/>
<path d="M107.827 1.45459H111.685V32.4148H107.827V1.45459Z" fill="#3D77B9"/>
</svg>
