<svg width="15" height="15" viewBox="0 0 15 15" fill="none" xmlns="http://www.w3.org/2000/svg">
<path d="M14.1202 7.39539H13.2651C13.2651 9.8581 11.6233 12.03 9.26324 12.7141C8.75017 12.868 8.21995 12.9365 7.70689 12.9365C5.84275 12.9365 4.06415 11.9958 3.02092 10.3711C2.42234 9.44763 2.14869 8.4044 2.14869 7.37827C2.14869 6.07851 2.61041 4.77874 3.49972 3.73551C4.57716 2.48705 6.13349 1.82008 7.70689 1.82008C8.49358 1.82008 9.26324 1.99111 10.0157 2.31605C11.9996 3.22247 13.2651 5.20632 13.2651 7.39539H14.9753C14.9753 4.53933 13.3164 1.9569 10.7169 0.759753C9.74206 0.315097 8.71591 0.109863 7.70689 0.109863C5.63753 0.109863 3.61944 0.982074 2.21706 2.62388C1.03701 3.97495 0.438477 5.68518 0.438477 7.39539C0.438477 8.74646 0.814694 10.1146 1.58429 11.3118C2.95246 13.4325 5.27838 14.6638 7.70689 14.6638C8.39097 14.6638 9.07506 14.5612 9.74204 14.373C12.8375 13.4666 14.9753 10.6448 14.9753 7.41251H14.1202V7.39539Z" fill="#EF4136"/>
<path d="M4.25214 11.6533L12.6665 4.84666L11.589 3.5127L3.1748 10.3193" fill="#EF4136"/>
</svg>
